<?xml version="1.0" encoding="UTF-8" standalone="no"?>
<!DOCTYPE svg PUBLIC "-//W3C//DTD SVG 1.1//EN" "http://www.w3.org/Graphics/SVG/1.1/DTD/svg11.dtd">
<svg width="100%" height="100%" viewBox="0 0 1080 1080" version="1.1" xmlns="http://www.w3.org/2000/svg" xmlns:xlink="http://www.w3.org/1999/xlink" xml:space="preserve" xmlns:serif="http://www.serif.com/" style="fill-rule:evenodd;clip-rule:evenodd;stroke-linejoin:round;stroke-miterlimit:2;">
    <g transform="matrix(1.37028,0,0,1.37028,-158.297,-225.158)">
        <g id="Layer2">
            <path d="M530.78,393.649C560.56,417.355 589.088,486.429 589.269,484.387C592.941,442.911 591.319,377.719 643.667,396.112C650.678,398.576 638.201,376.612 645.105,374.513C654.101,371.777 679.534,373.134 697.646,379.699C700.593,380.767 695.134,383.904 695.781,383.253C709.921,369.025 737.942,331.365 768.638,336.118C775.319,337.153 745.4,393.838 745.4,393.838C745.4,393.838 748.241,398.232 751.851,396.662C761.278,392.562 778.163,379.024 788.665,360.663C791.338,355.989 794.846,360.14 795.511,366.82C797.623,388.012 783.724,412.553 783.724,412.553C783.724,412.553 805.415,420.426 807.554,435.414C808.24,440.216 877.886,439.962 877.886,439.962C877.886,439.962 868.648,471.552 861.835,479.743C856.136,486.595 778.022,488.905 759.762,506.042C733.068,531.096 727.971,594.166 716.533,633.676C704.548,675.073 675.973,678.305 680.829,679.397C703.081,684.404 748.8,670.898 762.21,686.329C773.189,698.963 798.196,792.996 795.966,805.618C790.042,839.161 786.56,841.013 774.257,825.428C760.373,807.84 738.525,748.086 736.305,740.604C734.086,733.123 708.447,746.483 685.609,748.608C662.771,750.733 645.238,748.392 633.16,732.159C626.764,723.564 677.443,837.403 702.645,871.932C707.628,878.759 725.092,910.046 735.216,911.919C745.34,913.792 760.322,903.55 772.646,906.773C778.191,908.224 791.465,935.157 787.749,938.678C784.032,942.198 714.606,942.273 714.606,942.273C714.606,942.273 698.204,922.014 681.213,914.511C667.211,908.328 658.818,874.051 643.095,853.724C628.901,835.373 548.045,728.146 530.703,698.025C526.315,690.404 536.022,678.534 539.041,672.997C539.684,671.818 475.341,659.639 461.936,558.2C461.38,553.992 416.801,630.734 326.281,572.837C314.906,565.562 238.358,646.573 219.021,657.728C191.327,673.704 162.634,664.671 181.069,644.528C199.504,624.386 316.127,504.325 316.127,504.325C316.127,504.325 307.793,513.439 301.493,520.093C300.306,521.347 286.379,517.504 269.751,497.341C266.049,492.853 222.928,519.02 181.5,534.531C163.214,541.378 148.037,533.815 141.463,526.896C135.48,520.599 317.069,410.41 317.069,410.41C317.069,410.41 325.992,438.378 351.379,431.326C366.287,427.185 353.084,397.191 400.623,378.408C404.772,376.77 358,370.039 272.577,348.103C170.585,321.913 171.867,193.191 208.999,175.037C221.654,168.85 238.515,219.806 266.742,232.123C405.588,292.711 426.244,364.326 450.861,366.141C475.919,367.987 504.745,372.924 530.78,393.649Z" style="fill:url(#_Linear1);"/>
        </g>
    </g>
    <defs>
        <linearGradient id="_Linear1" x1="0" y1="0" x2="1" y2="0" gradientUnits="userSpaceOnUse" gradientTransform="matrix(-1.33129,-218.368,218.368,-1.33129,639.45,681.069)"><stop offset="0" style="stop-color:rgb(206,174,99);stop-opacity:1"/><stop offset="1" style="stop-color:rgb(255,217,38);stop-opacity:1"/></linearGradient>
    </defs>
</svg>
