<?xml version="1.0" encoding="UTF-8"?>
<svg xmlns="http://www.w3.org/2000/svg" xmlns:xlink="http://www.w3.org/1999/xlink" width="512px" height="512px" viewBox="0 0 512 512" version="1.1">
<defs>
<linearGradient id="linear0" gradientUnits="userSpaceOnUse" x1="0" y1="0" x2="1" y2="0" gradientTransform="matrix(-0.864825,-141.854958,141.854958,-0.864825,340.351311,335.690538)">
<stop offset="0" style="stop-color:rgb(80.784314%,68.235294%,38.823529%);stop-opacity:1;"/>
<stop offset="1" style="stop-color:rgb(100%,85.098039%,14.901961%);stop-opacity:1;"/>
</linearGradient>
</defs>
<g id="surface1">
<path style=" stroke:none;fill-rule:evenodd;fill:url(#linear0);" d="M 269.757812 148.976562 C 289.101562 164.378906 307.636719 209.25 307.753906 207.921875 C 310.136719 180.980469 309.085938 138.628906 343.089844 150.578125 C 347.644531 152.179688 339.539062 137.910156 344.023438 136.546875 C 349.867188 134.769531 366.390625 135.652344 378.15625 139.917969 C 380.070312 140.609375 376.523438 142.648438 376.945312 142.226562 C 386.128906 132.980469 404.332031 108.519531 424.273438 111.605469 C 428.613281 112.277344 409.179688 149.101562 409.179688 149.101562 C 409.179688 149.101562 411.023438 151.957031 413.367188 150.9375 C 419.492188 148.273438 430.460938 139.476562 437.285156 127.550781 C 439.019531 124.515625 441.296875 127.210938 441.730469 131.550781 C 443.101562 145.316406 434.074219 161.257812 434.074219 161.257812 C 434.074219 161.257812 448.164062 166.375 449.554688 176.109375 C 450 179.230469 495.242188 179.0625 495.242188 179.0625 C 495.242188 179.0625 489.242188 199.585938 484.816406 204.90625 C 481.113281 209.359375 430.371094 210.859375 418.507812 221.992188 C 401.167969 238.265625 397.855469 279.238281 390.425781 304.902344 C 382.640625 331.796875 364.078125 333.894531 367.230469 334.605469 C 381.6875 337.855469 411.386719 329.082031 420.097656 339.109375 C 427.230469 347.316406 443.476562 408.398438 442.027344 416.597656 C 438.179688 438.390625 435.917969 439.59375 427.925781 429.46875 C 418.90625 418.042969 404.710938 379.226562 403.269531 374.367188 C 401.828125 369.503906 385.171875 378.183594 370.335938 379.566406 C 355.5 380.945312 344.109375 379.425781 336.265625 368.878906 C 332.109375 363.296875 365.03125 437.246094 381.402344 459.679688 C 384.640625 464.113281 395.984375 484.4375 402.5625 485.652344 C 409.140625 486.871094 418.871094 480.21875 426.878906 482.3125 C 430.480469 483.253906 439.101562 500.75 436.6875 503.035156 C 434.273438 505.324219 389.171875 505.371094 389.171875 505.371094 C 389.171875 505.371094 378.519531 492.210938 367.480469 487.335938 C 358.386719 483.320312 352.933594 461.054688 342.71875 447.851562 C 333.5 435.929688 280.972656 366.273438 269.707031 346.707031 C 266.855469 341.753906 273.164062 334.042969 275.125 330.445312 C 275.542969 329.679688 233.742188 321.769531 225.035156 255.875 C 224.675781 253.140625 195.714844 302.992188 136.914062 265.382812 C 129.523438 260.65625 79.796875 313.28125 67.234375 320.527344 C 49.246094 330.90625 30.605469 325.039062 42.582031 311.953125 C 54.554688 298.867188 130.316406 220.875 130.316406 220.875 C 130.316406 220.875 124.902344 226.796875 120.808594 231.117188 C 120.039062 231.933594 110.992188 229.4375 100.191406 216.339844 C 97.785156 213.421875 69.773438 230.421875 42.859375 240.496094 C 30.980469 244.945312 21.121094 240.03125 16.851562 235.539062 C 12.964844 231.445312 130.929688 159.867188 130.929688 159.867188 C 130.929688 159.867188 136.722656 178.035156 153.214844 173.453125 C 162.902344 170.765625 154.324219 151.28125 185.207031 139.078125 C 187.902344 138.011719 157.515625 133.640625 102.027344 119.390625 C 35.769531 102.378906 36.601562 18.757812 60.722656 6.964844 C 68.945312 2.945312 79.898438 36.046875 98.234375 44.050781 C 188.429688 83.40625 201.851562 129.929688 217.839844 131.109375 C 234.121094 132.308594 252.84375 135.515625 269.757812 148.976562 Z M 269.757812 148.976562 "/>
</g>
</svg>
